<?xml version="1.0" encoding="UTF-8" standalone="no"?>
<svg
   xmlns:dc="http://purl.org/dc/elements/1.1/"
   xmlns:cc="http://creativecommons.org/ns#"
   xmlns:rdf="http://www.w3.org/1999/02/22-rdf-syntax-ns#"
   xmlns:svg="http://www.w3.org/2000/svg"
   xmlns="http://www.w3.org/2000/svg"
   xmlns:sodipodi="http://sodipodi.sourceforge.net/DTD/sodipodi-0.dtd"
   xmlns:inkscape="http://www.inkscape.org/namespaces/inkscape"
   width="200"
   height="50"
   viewBox="0 0 52.916665 13.229167"
   version="1.1"
   id="svg8"
   inkscape:version="1.0.1 (3bc2e813f5, 2020-09-07)"
   sodipodi:docname="halforge source logo.svg">
  <defs
     id="defs2">
    <pattern
       id="EMFhbasepattern"
       patternUnits="userSpaceOnUse"
       width="6"
       height="6"
       x="0"
       y="0" />
  </defs>
  <sodipodi:namedview
     id="base"
     pagecolor="#ffffff"
     bordercolor="#666666"
     borderopacity="1.0"
     inkscape:pageopacity="0.0"
     inkscape:pageshadow="2"
     inkscape:zoom="5.6"
     inkscape:cx="104.98843"
     inkscape:cy="64.790306"
     inkscape:document-units="mm"
     inkscape:current-layer="layer1"
     inkscape:document-rotation="0"
     showgrid="false"
     inkscape:window-width="1920"
     inkscape:window-height="1017"
     inkscape:window-x="-8"
     inkscape:window-y="-8"
     inkscape:window-maximized="1"
     units="px" />
  <metadata
     id="metadata5">
    <rdf:RDF>
      <cc:Work
         rdf:about="">
        <dc:format>image/svg+xml</dc:format>
        <dc:type
           rdf:resource="http://purl.org/dc/dcmitype/StillImage" />
        <dc:title></dc:title>
      </cc:Work>
    </rdf:RDF>
  </metadata>
  <g
     inkscape:label="Layer 1"
     inkscape:groupmode="layer"
     id="layer1"
     style="opacity:0.999">
    <path
       id="path37"
       style="opacity:0.999;fill:#e6e6e6;fill-opacity:1;stroke:#000000;stroke-width:0.264583;stroke-linejoin:round;stroke-miterlimit:4;stroke-dasharray:none;stroke-dashoffset:0;stroke-opacity:1"
       d="m 14.065169,2.0503864 c -0.03148,2.028113 0.369476,4.063028 0.586689,6.084146 0.191974,0.533449 -0.09926,1.51928 0.648647,1.678381 0.742812,-0.375093 0.429594,-1.406681 0.440366,-2.066774 -0.178226,-0.651542 0.423254,-1.008495 1.036014,-0.903387 0.726003,-0.113231 1.3746,0.391835 1.309505,1.10389 0.129203,0.655174 -0.244739,1.698461 0.549295,2.02712 1.054505,0.0045 0.931269,-1.311906 0.866823,-2.009487 -0.13471,-1.301392 -1.259268,-2.451287 -2.672315,-2.474403 -0.786704,-0.205794 -1.215516,-1.07828 -0.98039,-1.793562 0.143585,-0.854301 -0.548529,-1.960312 -1.527723,-1.789321 -0.08564,0.04783 -0.171275,0.09555 -0.256911,0.143397 z M 4.1059827,1.3273277 c -1.3759008,0.49736 -2.469901,1.608176 -3.27037823,2.761253 -1.6988995,2.43864 -0.6729748,6.0023443 1.86584793,7.5263503 0.5716642,0.435143 1.8301518,0.462963 1.7823161,-0.475936 C 4.3325136,10.043047 2.9017805,9.6967337 2.5848542,8.6490017 1.6374831,6.7817957 2.4231342,4.4006217 4.2450446,3.2927387 4.8579859,2.8629197 5.0882157,1.5527967 4.2126016,1.3229167 Z m 4.4778085,0.301855 c -1.0619603,0.158863 -0.9194014,1.670404 -0.040655,2.013796 1.4021525,0.863078 2.3700088,2.568793 1.7121188,4.135082 C 9.8710223,9.2484357 7.9153841,9.6280977 7.566317,11.09493 7.412912,12.005581 8.6508725,12.065327 9.2198918,11.654529 11.23894,10.589492 12.617477,8.3271567 12.430712,6.1206977 12.03747,4.3488747 10.853339,2.6697277 9.2002996,1.7503777 9.0026189,1.6798697 8.7995638,1.6051197 8.5837912,1.6291827 Z M 30.907948,3.1697094 c -1.259575,0.03452 -1.942418,1.263317 -1.828035,2.347769 0.0413,1.396798 0.0235,2.848198 0.467533,4.187472 0.433004,0.5625546 1.190227,0.0056 1.027025,-0.582117 0.02492,-0.74591 -0.124873,-1.493298 -0.07903,-2.236016 0.691315,-0.01794 1.60868,-0.371957 1.46247,-1.178809 -0.04913,-0.694918 -0.840588,-0.709449 -1.36049,-0.570678 -0.283316,-0.632848 0.763501,-0.689898 1.152525,-0.931849 0.534048,-0.09882 0.86272,-0.906827 0.166239,-1.020351 -0.332526,-0.05866 -0.673289,-0.0467 -1.00819,-0.01546 z m -4.299352,0.101306 c -0.622071,0.601623 -0.38925,1.606371 -0.490538,2.38537 0.03763,1.30499 -0.09778,2.694083 0.418688,3.925125 0.2711,0.5318126 1.094687,0.369205 1.059194,-0.235758 0.07132,-1.838338 0.109178,-3.712889 -0.213517,-5.530966 -0.05672,-0.340741 -0.379065,-0.695809 -0.773827,-0.543771 z M 4.9449923,3.0062607 c -0.7941808,0.548431 -0.4970433,1.690034 -0.5695011,2.506531 0.078759,1.240687 -0.086745,2.538514 0.2728345,3.737855 0.5657418,0.674692 1.1873886,-0.34302 1.1820296,-0.881354 -0.1460691,-0.792942 0.7749508,-1.551555 1.5203335,-1.03152 0.6538931,0.490772 0.034164,1.614449 0.8182334,1.992193 C 8.9444925,9.1816727 8.7077858,8.1693087 8.8572809,7.6113337 8.8073697,6.7929077 9.238611,5.6467577 8.440093,5.0664237 7.6060486,4.8360587 7.3133184,6.0566757 6.4654088,5.8023497 5.6955595,5.7265397 5.9366497,4.6909807 5.765873,4.1771387 5.684978,3.7411157 5.6131693,2.8966737 4.9449923,3.0062607 Z M 40.619134,5.2760914 c -0.791898,0.131202 -2.165914,0.119526 -2.162712,1.166817 -0.03039,1.128246 -0.08544,2.349168 0.403574,3.396403 0.636078,0.5370926 0.970113,-0.504219 0.954991,-0.978644 0.150827,-0.72424 -0.09529,-1.66808 0.426359,-2.242707 0.755373,0.352046 2.04224,-0.36028 1.520416,-1.18322 -0.29205,-0.281717 -0.774277,-0.158084 -1.142628,-0.158649 z m -5.613488,0.04626 c -1.979404,0.111572 -2.709762,2.707305 -1.441572,3.990918 0.570998,0.639177 1.549084,1.1346646 2.381009,0.624016 2.084864,-0.791138 1.812418,-4.349123 -0.501391,-4.614933 -0.146148,-0.01512 -0.291826,-0.0115 -0.438046,-1e-6 z m 9.630068,0.0264 c -1.464538,0.100066 -2.956948,1.404199 -2.480869,2.880621 0.374855,1.338259 2.013547,1.735406 3.287896,1.502921 0.688371,-0.173891 0.291039,0.7892646 -0.109411,0.7855966 -0.787341,0.171848 -1.786108,-0.117336 -2.417355,0.44728 -0.329194,0.823728 0.90648,1.065893 1.530299,1.060252 1.170042,0.156904 2.48349,-0.45272 2.662426,-1.648552 0.248312,-1.3293576 0.160689,-2.7264156 -0.125154,-4.0410066 -0.367285,-0.856715 -1.469474,-1.095936 -2.347842,-0.987116 z m -21.974172,0.022 c -1.701623,0.09307 -3.293197,2.062837 -2.185904,3.549367 0.480081,0.941371 1.758311,1.4124676 2.728955,0.83915 0.491392,-0.360111 0.841591,0.5054706 1.311113,-0.07649 1.078094,-1.128684 0.587687,-3.098912 -0.591014,-3.999151 -0.364914,-0.248088 -0.81985,-0.342005 -1.26315,-0.312876 z m 27.754538,0.125595 c -1.436828,0.140949 -2.901896,1.792345 -1.982504,3.094537 0.638688,0.924923 1.872631,1.8586556 3.085628,1.4696076 0.602506,-0.1265116 1.078121,-1.0076366 0.309209,-1.2615796 -0.525775,-0.258252 -1.291661,0.06667 -1.695091,-0.413934 0.968318,-0.08878 2.414449,0.01309 2.774294,-1.088468 0.140321,-1.189594 -1.380889,-2.023251 -2.491536,-1.800163 z m -0.01627,1.048803 c 0.292929,0.009 1.452124,0.335687 0.647327,0.519551 -0.504963,0.10108 -1.066479,0.379763 -1.537324,0.383847 -0.304119,-0.500632 0.416151,-0.958722 0.889997,-0.903398 z m -27.715101,0.123542 c 0.790403,0 1.438779,1.387762 0.368514,1.562205 -0.638626,0.248245 -1.836893,0.130852 -1.675704,-0.753559 0.126779,-0.548431 0.733381,-0.808646 1.307187,-0.808646 z m 12.582823,0 c 0.981941,0.01884 1.315955,1.349834 0.424008,1.765337 -0.980135,0.853556 -2.485851,-0.942116 -1.334869,-1.608899 0.274002,-0.151914 0.599732,-0.187879 0.910861,-0.156438 z m 9.72278,0.01986 c 0.978821,-0.110557 1.481779,1.440829 0.463548,1.6922 -0.707704,0.21633 -2.148673,0.157904 -1.979323,-0.852711 0.169459,-0.625641 0.896752,-0.87665 1.515775,-0.839489 z"
       sodipodi:nodetypes="cccccccccccccccccccccccccccccccccccccccccccccccccccccccccccccccccccccccccccccccccccccccccccccccsccsscccccccc" />
  </g>
</svg>
