<?xml version="1.0" encoding="UTF-8" standalone="no"?>
<svg
   xmlns:dc="http://purl.org/dc/elements/1.1/"
   xmlns:cc="http://creativecommons.org/ns#"
   xmlns:rdf="http://www.w3.org/1999/02/22-rdf-syntax-ns#"
   xmlns:svg="http://www.w3.org/2000/svg"
   xmlns="http://www.w3.org/2000/svg"
   xmlns:sodipodi="http://sodipodi.sourceforge.net/DTD/sodipodi-0.dtd"
   xmlns:inkscape="http://www.inkscape.org/namespaces/inkscape"
   width="200"
   height="43"
   viewBox="0 0 52.916665 11.377083"
   version="1.1"
   id="svg8"
   inkscape:version="1.0.1 (3bc2e813f5, 2020-09-07)"
   sodipodi:docname="logo.svg">
  <defs
     id="defs2">
    <pattern
       id="EMFhbasepattern"
       patternUnits="userSpaceOnUse"
       width="6"
       height="6"
       x="0"
       y="0" />
  </defs>
  <sodipodi:namedview
     id="base"
     pagecolor="#ffffff"
     bordercolor="#666666"
     borderopacity="1.0"
     inkscape:pageopacity="0.0"
     inkscape:pageshadow="2"
     inkscape:zoom="3.959798"
     inkscape:cx="116.64315"
     inkscape:cy="71.928234"
     inkscape:document-units="mm"
     inkscape:current-layer="layer1"
     inkscape:document-rotation="0"
     showgrid="false"
     inkscape:window-width="1346"
     inkscape:window-height="967"
     inkscape:window-x="519"
     inkscape:window-y="102"
     inkscape:window-maximized="0"
     units="px" />
  <metadata
     id="metadata5">
    <rdf:RDF>
      <cc:Work
         rdf:about="">
        <dc:format>image/svg+xml</dc:format>
        <dc:type
           rdf:resource="http://purl.org/dc/dcmitype/StillImage" />
        <dc:title></dc:title>
      </cc:Work>
    </rdf:RDF>
  </metadata>
  <g
     inkscape:label="Layer 1"
     inkscape:groupmode="layer"
     id="layer1"
     style="opacity:0.999">
    <path
       id="path37"
       style="opacity:0.999;fill:#e6e6e6;fill-opacity:1;stroke:#000000;stroke-width:0.264583;stroke-linejoin:round;stroke-miterlimit:4;stroke-dasharray:none;stroke-dashoffset:0;stroke-opacity:1"
       d="M 14.065169,0.99205303 C 14.033689,3.020166 14.434645,5.055081 14.651858,7.076199 c 0.191974,0.533449 -0.09926,1.51928 0.648647,1.678381 0.742812,-0.375093 0.429594,-1.406681 0.440366,-2.066774 -0.178226,-0.651542 0.423254,-1.008495 1.036014,-0.903387 0.726003,-0.113231 1.3746,0.391835 1.309505,1.10389 0.129203,0.655174 -0.244739,1.698461 0.549295,2.02712 1.054505,0.0045 0.931269,-1.311906 0.866823,-2.009487 C 19.367798,5.60455 18.24324,4.454655 16.830193,4.431539 16.043489,4.225745 15.614677,3.353259 15.849803,2.637977 15.993388,1.783676 15.301274,0.67766503 14.32208,0.84865603 c -0.08564,0.04783 -0.171275,0.09555 -0.256911,0.143397 z M 4.1059827,0.26899436 C 2.7300819,0.76635433 1.6360817,1.8771703 0.83560447,3.0302473 -0.86329503,5.4688873 0.16262967,9.0325916 2.7014524,10.556597 3.2731166,10.99174 4.5316042,11.01956 4.4837685,10.080661 4.3325136,8.9847136 2.9017805,8.6384003 2.5848542,7.5906683 1.6374831,5.7234623 2.4231342,3.3422883 4.2450446,2.2344053 4.8579859,1.8045863 5.0882157,0.49446333 4.2126016,0.26458336 Z M 8.5837912,0.57084933 C 7.5218309,0.72971233 7.6643898,2.2412533 8.5431362,2.5846453 9.9452887,3.4477233 10.913145,5.1534383 10.255255,6.7197273 9.8710223,8.1901023 7.9153841,8.5697643 7.566317,10.036596 7.412912,10.947247 8.6508725,11.006993 9.2198918,10.596195 11.23894,9.5311583 12.617477,7.2688233 12.430712,5.0623643 12.03747,3.2905413 10.853339,1.6113943 9.2002996,0.69204433 9.0026189,0.62153633 8.7995638,0.54678633 8.5837912,0.57084933 Z M 30.907948,2.111376 c -1.259575,0.03452 -1.942418,1.263317 -1.828035,2.347769 0.0413,1.396798 0.0235,2.848198 0.467533,4.187472 0.433004,0.5625546 1.190227,0.0056 1.027025,-0.582117 0.02492,-0.74591 -0.124873,-1.493298 -0.07903,-2.236016 0.691315,-0.01794 1.60868,-0.371957 1.46247,-1.178809 -0.04913,-0.694918 -0.840588,-0.709449 -1.36049,-0.570678 -0.283316,-0.632848 0.763501,-0.689898 1.152525,-0.931849 0.534048,-0.09882 0.86272,-0.906827 0.166239,-1.020351 -0.332526,-0.05866 -0.673289,-0.0467 -1.00819,-0.01546 z m -4.299352,0.101306 c -0.622071,0.601623 -0.38925,1.606371 -0.490538,2.38537 0.03763,1.30499 -0.09778,2.694083 0.418688,3.925125 0.2711,0.5318126 1.094687,0.369205 1.059194,-0.235758 C 27.66726,6.449081 27.705118,4.57453 27.382423,2.756453 27.325703,2.415712 27.003358,2.060644 26.608596,2.212682 Z M 4.9449923,1.9479273 c -0.7941808,0.548431 -0.4970433,1.690034 -0.5695011,2.506531 0.078759,1.240687 -0.086745,2.538514 0.2728345,3.737855 0.5657418,0.674692 1.1873886,-0.34302 1.1820296,-0.881354 -0.1460691,-0.792942 0.7749508,-1.551555 1.5203335,-1.03152 0.6538931,0.490772 0.034164,1.614449 0.8182334,1.992193 C 8.9444925,8.1233393 8.7077858,7.1109753 8.8572809,6.5530003 8.8073697,5.7345743 9.238611,4.5884243 8.440093,4.0080903 7.6060486,3.7777253 7.3133184,4.9983423 6.4654088,4.7440163 5.6955595,4.6682063 5.9366497,3.6326473 5.765873,3.1188053 5.684978,2.6827823 5.6131693,1.8383403 4.9449923,1.9479273 Z M 40.619134,4.217758 c -0.791898,0.131202 -2.165914,0.119526 -2.162712,1.166817 -0.03039,1.128246 -0.08544,2.349168 0.403574,3.396403 0.636078,0.5370926 0.970113,-0.504219 0.954991,-0.978644 0.150827,-0.72424 -0.09529,-1.66808 0.426359,-2.242707 0.755373,0.352046 2.04224,-0.36028 1.520416,-1.18322 C 41.469712,4.09469 40.987485,4.218323 40.619134,4.217758 Z m -5.613488,0.04626 c -1.979404,0.111572 -2.709762,2.707305 -1.441572,3.990918 0.570998,0.639177 1.549084,1.1346646 2.381009,0.624016 2.084864,-0.791138 1.812418,-4.349123 -0.501391,-4.614933 -0.146148,-0.01512 -0.291826,-0.0115 -0.438046,-1e-6 z m 9.630068,0.0264 c -1.464538,0.100066 -2.956948,1.404199 -2.480869,2.880621 0.374855,1.338259 2.013547,1.735406 3.287896,1.502921 0.688371,-0.173891 0.291039,0.7892646 -0.109411,0.7855966 -0.787341,0.1718477 -1.786108,-0.117336 -2.417355,0.4472797 -0.329194,0.8237277 0.90648,1.0658927 1.530299,1.0602517 1.170042,0.156904 2.48349,-0.45272 2.662426,-1.6485514 C 47.357012,7.989179 47.269389,6.592121 46.983546,5.27753 46.616261,4.420815 45.514072,4.181594 44.635704,4.290414 Z m -21.974172,0.022 c -1.701623,0.09307 -3.293197,2.062837 -2.185904,3.549367 0.480081,0.941371 1.758311,1.4124676 2.728955,0.83915 0.491392,-0.360111 0.841591,0.5054706 1.311113,-0.07649 C 25.5938,7.495761 25.103393,5.525533 23.924692,4.625294 23.559778,4.377206 23.104842,4.283289 22.661542,4.312418 Z M 50.41608,4.438013 C 48.979252,4.578962 47.514184,6.230358 48.433576,7.53255 49.072264,8.457473 50.306207,9.3912056 51.519204,9.0021576 52.12171,8.875646 52.597325,7.994521 51.828413,7.740578 51.302638,7.482326 50.536752,7.807248 50.133322,7.326644 51.10164,7.237864 52.547771,7.339734 52.907616,6.238176 53.047937,5.048582 51.526727,4.214925 50.41608,4.438013 Z m -0.01627,1.048803 c 0.292929,0.009 1.452124,0.335687 0.647327,0.519551 C 50.542174,6.107447 49.980658,6.38613 49.509813,6.390214 49.205694,5.889582 49.925964,5.431492 50.39981,5.486816 Z M 22.684709,5.610358 c 0.790403,0 1.438779,1.387762 0.368514,1.562205 C 22.414597,7.420808 21.21633,7.303415 21.377519,6.419004 21.504298,5.870573 22.1109,5.610358 22.684706,5.610358 Z m 12.582823,0 c 0.981941,0.01884 1.315955,1.349834 0.424008,1.765337 -0.980135,0.853556 -2.485851,-0.942116 -1.334869,-1.608899 0.274002,-0.151914 0.599732,-0.187879 0.910861,-0.156438 z m 9.72278,0.01986 c 0.978821,-0.110557 1.481779,1.440829 0.463548,1.6922 -0.707704,0.21633 -2.148673,0.157904 -1.979323,-0.852711 0.169459,-0.625641 0.896752,-0.87665 1.515775,-0.839489 z"
       sodipodi:nodetypes="cccccccccccccccccccccccccccccccccccccccccccccccccccccccccccccccccccccccccccccccccccccccccccccccsccsscccccccc" />
  </g>
</svg>
